<?xml version="1.0" standalone="no"?>
<!DOCTYPE svg PUBLIC "-//W3C//DTD SVG 20010904//EN"
 "http://www.w3.org/TR/2001/REC-SVG-20010904/DTD/svg10.dtd">
<svg version="1.0" xmlns="http://www.w3.org/2000/svg"
 width="5316.000000pt" height="5316.000000pt" viewBox="0 0 5316.000000 5316.000000"
 preserveAspectRatio="xMidYMid meet">
<metadata>
Created by potrace 1.16, written by Peter Selinger 2001-2019
</metadata>
<g transform="translate(0.000000,5316.000000) scale(0.100000,-0.100000)"
fill="#000000" stroke="none">
<path d="M25785 47830 c-2835 -118 -5447 -734 -7995 -1885 -285 -129 -999
-483 -1279 -635 -1640 -889 -3075 -1921 -4461 -3209 -228 -212 -836 -824
-1059 -1066 -1220 -1322 -2231 -2727 -3086 -4290 -175 -321 -529 -1029 -674
-1350 -1086 -2399 -1704 -4880 -1866 -7490 -52 -844 -52 -1789 0 -2645 181
-2952 991 -5878 2345 -8470 1297 -2484 3025 -4644 5168 -6459 1777 -1505 3863
-2742 6035 -3580 2715 -1047 5561 -1520 8492 -1410 6410 239 12351 3362 16215
8524 2451 3275 3903 7195 4175 11270 31 475 37 636 42 1246 7 790 -9 1274 -67
1979 -254 3081 -1181 6071 -2718 8760 -1347 2358 -3152 4457 -5282 6141 -2827
2236 -6141 3705 -9681 4293 -821 137 -1510 210 -2484 267 -238 13 -1551 20
-1820 9z m7375 -11930 c1612 -59 3109 -501 4475 -1321 1026 -616 1942 -1442
2665 -2404 894 -1191 1489 -2568 1734 -4017 301 -1778 87 -3604 -616 -5238
-925 -2150 -2618 -3873 -4762 -4845 -1821 -824 -3918 -1031 -5893 -580 -1352
309 -2626 925 -3725 1801 -292 233 -484 408 -825 750 l-333 334 -4985 0 -4985
0 0 590 0 590 4540 2 4540 3 -72 115 c-140 224 -291 499 -433 785 -278 564
-462 1045 -639 1678 l-17 57 -2759 0 -2760 0 -2 293 c-2 160 -2 428 0 595 l3
302 2644 0 2645 0 -5 23 c-7 34 -43 412 -57 602 -15 224 -15 901 0 1135 65
947 246 1814 554 2640 44 118 82 223 85 233 5 16 -201 17 -4236 17 l-4240 0
-3 303 c-2 166 -2 434 0 595 l2 292 4531 0 4530 0 37 61 c470 767 855 1268
1406 1828 296 299 512 495 838 755 1552 1243 3470 1955 5453 2025 311 11 374
11 665 1z m-20910 -5265 l0 -595 -625 0 -625 0 0 595 0 595 625 0 625 0 0
-595z m2208 3 l-3 -593 -622 -3 -623 -2 0 595 0 595 625 0 625 0 -2 -592z
m512 -5843 l0 -595 -625 0 -625 0 0 595 0 595 625 0 625 0 0 -595z m2190 0 l0
-595 -625 0 -625 0 0 595 0 595 625 0 625 0 0 -595z m-4280 -3825 l0 -590
-625 0 -625 0 0 590 0 590 625 0 625 0 0 -590z m2200 0 l0 -590 -625 0 -625 0
0 590 0 590 625 0 625 0 0 -590z"/>
<path d="M32485 34709 c-1723 -75 -3379 -699 -4730 -1783 -296 -237 -675 -595
-939 -886 -1002 -1105 -1687 -2478 -1960 -3931 -101 -536 -140 -963 -140
-1529 0 -382 9 -564 45 -885 203 -1841 1016 -3538 2324 -4851 1188 -1192 2715
-1988 4365 -2274 489 -84 852 -114 1395 -114 450 0 641 11 1025 60 1955 246
3749 1195 5066 2679 1003 1131 1675 2535 1928 4032 78 460 109 841 110 1348 0
461 -20 757 -80 1174 -213 1482 -828 2864 -1793 4031 -315 381 -771 829 -1166
1146 -1537 1236 -3473 1869 -5450 1783z m1075 -1548 c820 -90 1554 -303 2265
-658 658 -329 1213 -731 1743 -1260 118 -117 215 -213 218 -213 2 0 41 28 86
61 141 105 235 139 388 139 169 0 309 -58 425 -175 111 -113 166 -249 166
-415 0 -205 -80 -361 -253 -491 -46 -34 -87 -65 -91 -69 -4 -4 26 -63 67 -132
521 -875 822 -1832 907 -2878 19 -227 16 -793 -5 -1020 -92 -1020 -368 -1904
-862 -2767 -147 -257 -494 -767 -517 -760 -4 1 -217 165 -472 365 l-465 363
49 62 c228 293 495 751 651 1117 579 1355 598 2810 55 4185 -59 149 -214 472
-302 627 l-66 117 -841 -633 c-463 -348 -1075 -808 -1362 -1024 l-521 -391 33
-113 c58 -203 78 -347 78 -573 0 -216 -14 -336 -59 -515 -150 -590 -549 -1086
-1095 -1360 -285 -143 -543 -207 -870 -217 -433 -13 -821 92 -1184 321 -48 31
-90 56 -92 56 -2 0 -221 -162 -485 -361 -307 -230 -506 -373 -551 -394 -173
-83 -389 -69 -564 36 -114 69 -223 218 -259 355 -19 75 -19 223 0 298 20 76
77 184 128 242 22 25 254 207 517 405 l477 359 -38 114 c-170 507 -135 1072
95 1551 75 155 125 238 219 364 339 452 855 751 1417 820 109 14 401 14 510 1
335 -42 683 -177 952 -371 37 -27 70 -49 73 -49 11 0 2695 2021 2695 2029 0 4
-66 73 -147 152 -919 898 -2090 1427 -3383 1529 -207 17 -641 14 -855 -5
-1466 -129 -2769 -807 -3708 -1930 -694 -829 -1118 -1834 -1232 -2920 -23
-211 -31 -671 -16 -891 71 -1052 432 -2047 1039 -2863 58 -78 82 -119 76 -127
-19 -27 -927 -725 -933 -717 -3 4 -45 60 -92 123 -220 296 -414 614 -598 980
-193 387 -321 714 -435 1113 -167 583 -241 1091 -253 1717 -8 438 18 810 88
1225 328 1974 1569 3715 3344 4692 774 427 1660 696 2555 778 252 23 248 23
685 20 337 -3 445 -7 605 -24z m930 -10936 l0 -595 -1600 0 -1600 0 0 595 0
595 1600 0 1600 0 0 -595z"/>
<path d="M32749 27520 c-380 -46 -680 -308 -781 -681 -29 -107 -31 -307 -5
-411 83 -335 309 -575 634 -675 80 -24 103 -27 248 -27 145 0 168 3 248 27
325 100 551 340 634 675 26 104 24 304 -5 411 -62 228 -206 427 -395 545 -171
107 -392 159 -578 136z"/>
</g>
</svg>
