<?xml version="1.0" standalone="no"?>
<!DOCTYPE svg PUBLIC "-//W3C//DTD SVG 20010904//EN"
 "http://www.w3.org/TR/2001/REC-SVG-20010904/DTD/svg10.dtd">
<svg version="1.0" xmlns="http://www.w3.org/2000/svg"
 width="740.000000pt" height="740.000000pt" viewBox="0 0 740.000000 740.000000"
 preserveAspectRatio="xMidYMid meet">
<metadata>
Created by potrace 1.16, written by Peter Selinger 2001-2019
</metadata>
<g transform="translate(0.000000,740.000000) scale(0.100000,-0.100000)"
fill="#000000" stroke="none">
<path d="M4981 5425 l-373 -375 -87 76 c-242 212 -545 362 -863 426 -100 20
-141 23 -353 23 -211 -1 -253 -3 -345 -23 -365 -79 -657 -234 -919 -487 -311
-301 -483 -655 -546 -1127 -6 -43 -9 -48 -31 -48 -49 0 -94 -76 -64 -106 7 -7
4 -16 -10 -29 -11 -10 -20 -24 -20 -31 0 -20 29 -44 54 -44 29 0 66 -39 66
-71 1 -21 2 -22 13 -8 8 11 19 14 32 9 45 -17 40 26 -6 53 -36 20 -33 43 5 40
23 -2 26 1 21 15 -20 48 -19 48 67 75 45 14 86 23 91 18 15 -15 57 -146 57
-178 0 -37 -29 -63 -71 -63 -24 0 -27 -5 -33 -46 -13 -98 -17 -94 77 -94 125
0 205 16 343 67 l41 15 -10 46 c-17 83 -13 337 7 432 50 235 154 434 312 600
347 362 858 476 1322 294 129 -51 245 -123 376 -237 l39 -33 -67 -66 -67 -66
-86 69 c-255 204 -580 275 -895 195 -356 -90 -639 -374 -733 -734 -24 -91 -38
-236 -30 -317 4 -41 10 -75 14 -75 4 0 28 21 53 48 57 58 87 121 88 185 0 46
3 50 76 123 57 57 78 73 85 63 5 -9 -1 -24 -20 -44 -25 -27 -27 -32 -15 -55 8
-14 14 -33 14 -44 0 -27 -39 -92 -65 -106 -14 -8 -26 -29 -35 -63 -16 -66 -69
-182 -109 -241 -17 -24 -31 -50 -31 -56 0 -6 14 -43 30 -83 94 -220 306 -428
534 -524 141 -60 222 -75 400 -77 l159 -2 32 -84 32 -85 -26 -9 c-14 -5 -100
-9 -191 -10 -233 -1 -380 34 -576 138 -217 115 -425 332 -523 542 l-23 51 -67
-32 c-61 -30 -78 -33 -231 -44 -91 -7 -189 -16 -219 -19 l-54 -7 -28 -105
c-15 -58 -25 -107 -21 -111 4 -3 30 -11 57 -18 61 -15 79 -29 47 -38 -18 -4
-20 -8 -11 -19 9 -11 8 -15 -4 -20 -9 -3 -13 -12 -10 -20 4 -10 -3 -14 -24
-14 -17 0 -38 -8 -47 -19 -9 -10 -29 -21 -44 -24 -24 -5 -30 -14 -44 -68 -9
-35 -15 -66 -12 -71 5 -8 341 -1 355 7 4 3 24 -17 45 -43 269 -333 642 -561
1074 -653 91 -20 135 -23 335 -23 214 -1 369 12 404 33 8 5 0 31 -26 89 l-36
82 -97 0 -98 0 -22 52 c-38 90 -90 83 641 86 389 1 647 6 653 12 6 6 4 15 -4
25 -10 12 -43 15 -199 15 l-187 0 -42 85 c-23 47 -42 88 -42 90 0 3 17 -6 38
-20 20 -13 51 -27 68 -31 67 -13 134 88 174 262 38 167 34 160 121 201 73 34
78 38 73 62 -13 56 -16 61 -40 61 -27 0 -85 26 -96 44 -15 23 -6 47 59 163 36
65 67 120 69 122 1 1 26 -5 54 -14 35 -12 55 -25 65 -44 13 -25 12 -31 -12
-70 -22 -38 -24 -46 -12 -67 12 -24 29 -32 29 -14 0 18 39 31 60 20 26 -14 26
-44 -1 -69 l-20 -19 20 -40 c20 -39 22 -41 58 -35 21 3 41 11 45 17 4 6 25 65
47 131 129 389 129 782 1 1167 -75 224 -209 458 -354 616 l-40 43 378 378 377
377 -24 22 -23 22 -373 -375z m-739 -892 c44 -48 128 -181 168 -267 148 -320
148 -692 0 -1012 -62 -135 -187 -306 -280 -384 -46 -39 -49 -40 -76 -25 -21
11 -61 15 -142 15 l-114 0 74 49 c162 110 275 240 359 416 74 156 94 249 94
435 0 130 -4 169 -23 245 -37 140 -126 317 -201 398 l-25 27 64 65 c36 36 67
65 70 65 4 0 18 -12 32 -27z m-757 -277 c51 -19 165 -81 165 -90 0 -3 -73 -94
-161 -203 -188 -231 -209 -263 -171 -263 15 1 211 149 282 213 14 13 55 47 92
76 l67 52 26 -50 c101 -200 59 -441 -105 -602 -214 -211 -538 -206 -749 10
-53 55 -107 150 -127 225 -19 70 -18 210 2 277 55 188 208 331 397 375 82 18
199 10 282 -20z"/>
<path d="M5935 4035 c-49 -48 -27 -84 70 -115 46 -15 55 -25 55 -62 0 -23 4
-26 26 -25 38 3 54 -26 30 -52 -11 -12 -29 -21 -41 -21 -12 0 -30 -9 -40 -20
-17 -18 -16 -23 9 -112 14 -51 26 -98 26 -103 0 -6 16 -19 35 -29 20 -11 72
-57 116 -103 43 -46 85 -83 91 -83 6 0 30 11 54 25 51 30 73 79 53 117 -7 13
-16 26 -21 29 -6 4 6 16 25 28 75 46 89 148 34 252 -45 88 -85 111 -188 107
l-76 -3 7 26 c11 38 -41 146 -76 159 -14 6 -57 10 -95 10 -61 0 -73 -3 -94
-25z"/>
<path d="M5995 2840 c-33 -4 -72 -5 -87 -2 -27 4 -28 3 -28 -44 0 -39 -71
-313 -125 -483 -6 -21 -4 -21 108 -21 131 0 140 -5 130 -66 -10 -67 -18 -74
-76 -74 l-53 0 -21 -50 -21 -49 36 -8 c21 -4 98 -7 172 -8 l135 0 53 235 c62
279 71 363 48 441 -22 78 -51 113 -88 105 -19 -4 -39 1 -61 14 -17 11 -39 19
-47 18 -8 0 -42 -4 -75 -8z"/>
<path d="M1555 2454 c-70 -19 -210 -28 -272 -17 -63 12 -58 24 -74 -162 -22
-258 1 -758 49 -1060 l17 -110 45 0 45 0 7 235 c7 247 24 537 37 630 l7 55 7
-45 c3 -25 13 -101 22 -170 24 -189 75 -439 136 -672 9 -35 12 -38 47 -38 61
0 75 16 63 71 -39 176 -63 576 -59 992 3 268 1 307 -12 306 -8 0 -37 -7 -65
-15z"/>
<path d="M3700 2146 c0 -2 16 -37 35 -79 l35 -75 82 25 c105 32 190 69 206 90
30 41 21 43 -173 43 -102 0 -185 -2 -185 -4z"/>
<path d="M4710 2139 c-277 -14 -442 -68 -492 -161 -21 -39 -23 -55 -22 -168 1
-108 6 -143 37 -260 47 -181 51 -190 82 -190 14 0 42 7 62 15 33 14 35 17 29
48 -47 232 -20 399 74 447 37 19 228 66 236 58 2 -2 -15 -26 -37 -53 -79 -95
-171 -279 -265 -528 l-29 -78 -36 5 c-30 5 -45 -1 -99 -37 -35 -23 -72 -54
-83 -69 -20 -27 -20 -27 0 -75 l20 -48 47 3 c82 5 172 48 197 93 9 17 7 19
-13 14 -13 -3 -31 0 -42 8 -17 13 -17 15 -2 45 l17 32 40 -20 40 -21 41 33
c53 42 149 172 235 318 38 63 81 130 97 148 36 41 110 79 244 126 55 19 114
42 130 50 44 23 64 76 70 185 5 89 4 94 -14 87 -104 -42 -261 -49 -354 -16
-30 11 -57 19 -60 18 -3 -1 -70 -4 -150 -9z"/>
<path d="M6196 1372 c-3 -5 -8 -57 -12 -115 -7 -113 -12 -123 -61 -136 -15 -4
-30 -16 -32 -26 -3 -16 2 -17 54 -12 31 3 60 8 63 12 3 3 8 43 10 90 3 47 7
85 11 85 3 0 17 -16 31 -34 31 -43 39 -38 12 6 -11 18 -26 52 -33 76 -13 44
-33 70 -43 54z"/>
<path d="M6005 1216 c-67 -94 -87 -112 -108 -99 -7 4 -8 0 -4 -11 4 -10 7 -22
7 -27 0 -6 17 -9 38 -7 34 3 39 7 68 62 41 80 57 84 50 14 l-6 -53 14 50 c8
28 20 69 26 92 12 43 9 73 -9 73 -5 0 -40 -42 -76 -94z"/>
<path d="M1694 1049 c-4 -7 -20 -9 -39 -6 -24 4 -35 1 -39 -10 -11 -27 -6 -90
7 -101 17 -14 343 -27 351 -14 3 5 0 14 -7 19 -15 11 -251 123 -260 123 -3 0
-9 -5 -13 -11z"/>
<path d="M1280 1030 c-6 -11 -13 -39 -16 -64 l-6 -44 44 -7 c25 -4 56 -5 69
-3 21 3 24 8 23 45 -1 40 -34 109 -41 86 -3 -8 -14 -9 -34 -3 -24 7 -31 5 -39
-10z"/>
</g>
</svg>
